<svg width="24" height="24" viewBox="0 0 24 24" fill="none" xmlns="http://www.w3.org/2000/svg">
<path fill-rule="evenodd" clip-rule="evenodd" d="M1.5518 6.08253C1.7513 3.62346 3.88711 2 6.19823 2H17.8018C20.1129 2 22.2487 3.62346 22.4482 6.08253C22.5955 7.89887 22.6018 10.2773 21.9523 12.305C21.3696 14.1244 20.132 15.8725 18.803 17.3677C17.4627 18.8755 15.9672 20.1946 14.7852 21.1525C13.1499 22.4778 10.8501 22.4778 9.21484 21.1525C8.03283 20.1946 6.53734 18.8755 5.19702 17.3677C3.86799 15.8725 2.63038 14.1244 2.04765 12.305C1.39819 10.2773 1.40445 7.89887 1.5518 6.08253ZM6.19823 4C4.7693 4 3.64818 4.97552 3.54525 6.24425C3.4045 7.97921 3.4235 10.0438 3.95234 11.695C4.4109 13.1267 5.43781 14.6282 6.69184 16.039C7.93458 17.437 9.34068 18.6802 10.4741 19.5987C11.3752 20.329 12.6247 20.329 13.5259 19.5987C14.6593 18.6802 16.0654 17.437 17.3082 16.039C18.5622 14.6282 19.5891 13.1267 20.0477 11.695C20.5765 10.0438 20.5955 7.97921 20.4547 6.24425C20.3518 4.97552 19.2307 4 17.8018 4H6.19823ZM12 7C12.5523 7 13 7.44772 13 8V12C13 12.5523 12.5523 13 12 13C11.4477 13 11 12.5523 11 12V8C11 7.44772 11.4477 7 12 7Z" fill="black"/>
<path d="M13 16C13 16.5523 12.5523 17 12 17C11.4477 17 11 16.5523 11 16C11 15.4477 11.4477 15 12 15C12.5523 15 13 15.4477 13 16Z" fill="black"/>
</svg>
