<svg width="48" height="48" viewBox="0 0 48 48" fill="none" xmlns="http://www.w3.org/2000/svg">
<path d="M21.7672 35.5723L13.989 27.7942L16.4674 25.3158C16.4852 25.3368 16.5028 25.3582 16.5226 25.378L24.1834 33.0388C24.2032 33.0586 24.2246 33.0762 24.2455 33.094L21.7672 35.5723ZM27.6886 15.5089L34.0525 21.8728C34.443 22.2634 34.443 22.8965 34.0525 23.2871L25.6535 31.686C25.6358 31.6651 25.6174 31.6443 25.5976 31.6246L17.9368 23.9638C17.9171 23.944 17.8963 23.9256 17.8754 23.9078L26.2743 15.5089C26.6649 15.1184 27.298 15.1184 27.6886 15.5089Z" stroke="black" stroke-width="2" stroke-linecap="round"/>
<path d="M9 13L16 20" stroke="black" stroke-width="2" stroke-linecap="round"/>
<path d="M16 13L9 20" stroke="black" stroke-width="2" stroke-linecap="round"/>
</svg>
