<?xml version="1.0" encoding="UTF-8"?>
<svg xmlns="http://www.w3.org/2000/svg" xmlns:xlink="http://www.w3.org/1999/xlink" width="9px" height="16px" viewBox="0 0 9 15" version="1.1">
<g id="surface1">
<path style=" stroke:none;fill-rule:nonzero;fill:rgb(0%,0%,0%);fill-opacity:1;" d="M 3.398438 10.613281 L 3.398438 10.53125 C 3.410156 9.652344 3.507812 8.949219 3.691406 8.429688 C 3.875 7.910156 4.140625 7.488281 4.480469 7.164062 C 4.820312 6.84375 5.230469 6.546875 5.707031 6.273438 C 5.996094 6.109375 6.253906 5.914062 6.480469 5.6875 C 6.710938 5.457031 6.890625 5.191406 7.023438 4.890625 C 7.160156 4.59375 7.226562 4.261719 7.226562 3.898438 C 7.226562 3.445312 7.117188 3.054688 6.890625 2.722656 C 6.667969 2.390625 6.367188 2.136719 5.992188 1.957031 C 5.617188 1.777344 5.203125 1.6875 4.742188 1.6875 C 4.34375 1.6875 3.960938 1.765625 3.589844 1.921875 C 3.21875 2.078125 2.910156 2.324219 2.660156 2.660156 C 2.414062 2.996094 2.269531 3.4375 2.230469 3.980469 L 0.390625 3.980469 C 0.429688 3.195312 0.644531 2.527344 1.03125 1.96875 C 1.425781 1.410156 1.945312 0.984375 2.589844 0.691406 C 3.234375 0.394531 3.953125 0.25 4.742188 0.25 C 5.601562 0.25 6.347656 0.410156 6.980469 0.734375 C 7.617188 1.054688 8.109375 1.496094 8.453125 2.058594 C 8.804688 2.621094 8.980469 3.261719 8.980469 3.980469 C 8.980469 4.488281 8.898438 4.945312 8.730469 5.355469 C 8.570312 5.765625 8.335938 6.132812 8.03125 6.453125 C 7.730469 6.777344 7.363281 7.0625 6.933594 7.3125 C 6.507812 7.566406 6.164062 7.832031 5.90625 8.113281 C 5.648438 8.390625 5.460938 8.71875 5.34375 9.101562 C 5.226562 9.484375 5.164062 9.960938 5.152344 10.53125 L 5.152344 10.613281 Z M 4.335938 14.707031 C 3.972656 14.707031 3.664062 14.582031 3.40625 14.339844 C 3.148438 14.09375 3.019531 13.800781 3.019531 13.460938 C 3.019531 13.121094 3.148438 12.828125 3.40625 12.582031 C 3.664062 12.339844 3.972656 12.21875 4.335938 12.21875 C 4.695312 12.21875 5.003906 12.339844 5.261719 12.582031 C 5.519531 12.828125 5.648438 13.121094 5.648438 13.460938 C 5.648438 13.6875 5.589844 13.894531 5.464844 14.082031 C 5.351562 14.273438 5.191406 14.425781 4.992188 14.539062 C 4.796875 14.648438 4.578125 14.707031 4.335938 14.707031 Z M 4.335938 14.707031 "/>
</g>
</svg>
